<svg height="512pt" viewBox="0 0 511 512" width="512pt" xmlns="http://www.w3.org/2000/svg"><g fill-rule="evenodd"><path d="m498.929688 432.796875-103.570313-103.570313c14.460937-22.632812 24.386719-47.515624 29.542969-74.078124 1.050781-5.421876-2.492188-10.671876-7.914063-11.722657-5.410156-1.046875-10.667969 2.488281-11.71875 7.910157-5.15625 26.578124-15.582031 51.292968-30.984375 73.460937-2.761718 3.976563-2.28125 9.355469 1.140625 12.777344l109.363281 109.363281c4.960938 4.960938 7.691407 11.589844 7.691407 18.675781 0 7.082031-2.730469 13.714844-7.691407 18.675781-10.296874 10.296876-27.054687 10.296876-37.351562 0l-109.363281-109.363281c-3.421875-3.421875-8.800781-3.902343-12.777344-1.140625-77.128906 53.597656-181.398437 44.214844-247.925781-22.316406-27.3125-27.3125-45.695313-61.695312-53.15625-99.429688-1.070313-5.417968-6.332032-8.945312-11.75-7.867187-5.417969 1.070313-8.9375 6.328125-7.867188 11.746094 8.230469 41.636719 28.507813 79.566406 58.632813 109.695312 35.722656 35.71875 83.074219 57.726563 133.339843 61.964844 46.859376 3.945313 93.8125-7.640625 133.15625-32.722656l103.570313 103.574219c9.046875 9.046874 20.929687 13.570312 32.816406 13.570312 11.882813 0 23.769531-4.523438 32.816407-13.570312 8.734374-8.738282 13.546874-20.390626 13.546874-32.816407.003907-12.425781-4.808593-24.078125-13.546874-32.816406zm0 0"/><path d="m12.464844 184.171875c.65625.128906 1.308594.191406 1.953125.191406 4.675781 0 8.855469-3.296875 9.796875-8.058593 7.464844-37.742188 25.847656-72.125 53.15625-99.433594 36.675781-36.675782 85.433594-56.871094 137.300781-56.871094 51.863281 0 100.625 20.195312 137.296875 56.871094 27.121094 27.117187 45.449219 61.246094 53.007812 98.695312 1.09375 5.414063 6.367188 8.902344 11.78125 7.824219 5.410157-1.09375 8.914063-6.367187 7.820313-11.78125-8.339844-41.316406-28.554687-78.96875-58.46875-108.878906-40.449219-40.453125-94.234375-62.730469-151.4375-62.730469-57.210937 0-110.992187 22.277344-151.445313 62.730469-30.117187 30.121093-50.394531 68.050781-58.628906 109.691406-1.074218 5.417969 2.449219 10.675781 7.867188 11.75zm0 0"/><path d="m333.394531 95.445312c-31.714843-31.710937-73.878906-49.175781-118.722656-49.175781-44.851563 0-87.011719 17.464844-118.722656 49.175781-31.714844 31.714844-49.179688 73.878907-49.179688 118.726563 0 31.710937 8.746094 62.078125 25.074219 88.359375l-.042969.085938 2.121094 3.175781c6.320313 9.664062 13.671875 18.746093 22.023437 27.101562 31.714844 31.710938 73.875 49.175781 118.722657 49.175781 44.847656 0 87.011719-17.464843 118.722656-49.175781 8.335937-8.335937 15.675781-17.398437 21.984375-27.035156l2.167969-3.238281-.046875-.089844c16.328125-26.28125 25.070312-56.648438 25.070312-88.359375.003906-44.847656-17.460937-87.011719-49.171875-118.726563zm-223.304687 14.144532c27.933594-27.9375 65.074218-43.320313 104.582031-43.320313 39.503906 0 76.644531 15.386719 104.578125 43.320313 27.9375 27.933594 43.320312 65.074218 43.320312 104.582031 0 23.6875-5.535156 46.519531-15.988281 67.03125-17.496093-31.1875-36.265625-47.398437-77.183593-53.90625 6.492187-12.046875 10.277343-26.359375 10.277343-41.710937 0-42.707032-29.164062-77.453126-65.007812-77.453126s-65.003907 34.746094-65.003907 77.453126c0 15.351562 3.78125 29.660156 10.273438 41.710937-40.917969 6.507813-59.6875 22.71875-77.183594 53.90625-10.449218-20.511719-15.988281-43.347656-15.988281-67.03125.003906-39.507813 15.386719-76.648437 43.324219-104.582031zm112.511718 132.539062c-.550781.128906-1.105468.242188-1.664062.34375-.207031.035156-.414062.066406-.625.101563-.460938.074219-.925781.148437-1.390625.203125-.351563.042968-.703125.070312-1.058594.105468-.34375.03125-.6875.066407-1.03125.089844-.71875.042969-1.4375.070313-2.160156.070313-.726563 0-1.445313-.027344-2.164063-.070313-.34375-.023437-.6875-.058594-1.03125-.089844-.351562-.03125-.707031-.0625-1.058593-.105468-.464844-.054688-.925781-.128906-1.386719-.203125-.210938-.03125-.421875-.0625-.628906-.101563-.558594-.101562-1.109375-.214844-1.660156-.34375-.09375-.019531-.1875-.039062-.277344-.0625-7.929688-1.894531-15.378906-6.507812-21.539063-13.457031l-1.0625-1.195313c-8.730469-10.484374-14.199219-25.351562-14.199219-41.828124 0-31.679688 20.191407-57.453126 45.007813-57.453126s45.003906 25.773438 45.003906 57.453126c0 16.464843-5.460937 31.324218-14.183593 41.8125l-1.078126 1.214843c-6.15625 6.945313-13.609374 11.5625-21.539062 13.457031-.089844.019532-.183594.039063-.273438.058594zm-7.929687 119.941406c-39.507813 0-76.648437-15.382812-104.582031-43.320312-1.253906-1.253906-2.480469-2.535156-3.6875-3.832031-.21875-.234375-.4375-.46875-.65625-.703125-1.210938-1.320313-2.402344-2.652344-3.5625-4.011719-.054688-.0625-.109375-.128906-.164063-.191406-2.496093-2.925781-4.878906-5.945313-7.128906-9.042969 17.460937-34.765625 31.460937-50.265625 78.683594-55.304688 8.164062 7.941407 17.753906 13.3125 28.003906 15.796876.007813.003906.015625.003906.023437.007812.960938.230469 1.929688.4375 2.898438.617188.214844.039062.425781.078124.636719.113281.785156.136719 1.574219.257812 2.363281.359375.296875.039062.589844.078125.890625.113281.75.085937 1.507813.148437 2.265625.207031.296875.019532.589844.050782.890625.066406 1.035156.058594 2.078125.09375 3.125.09375 1.042969 0 2.085937-.035156 3.125-.09375.296875-.019531.589844-.046874.886719-.066406.757812-.058594 1.515625-.121094 2.265625-.207031.300781-.035156.597656-.074219.890625-.113281.792968-.101563 1.578125-.222656 2.359375-.359375.214843-.035157.429687-.074219.640625-.113281.972656-.179688 1.9375-.386719 2.894531-.617188.011719-.003906.019531-.003906.03125-.007812 10.246094-2.484376 19.835937-7.859376 28-15.796876 47.222656 5.039063 61.222656 20.539063 78.6875 55.304688-2.25 3.089844-4.625 6.101562-7.117187 9.023438-.0625.074218-.121094.148437-.183594.21875-1.15625 1.351562-2.34375 2.679687-3.546875 3.988281-.226563.246093-.453125.488281-.679688.734375-1.203125 1.289062-2.425781 2.570312-3.675781 3.816406-27.933594 27.9375-65.074219 43.320312-104.578125 43.320312zm0 0"/><path d="m20.5 214.171875c0-5.507813-4.492188-10-10-10s-10 4.492187-10 10 4.492188 10 10 10 10-4.492187 10-10zm0 0"/><path d="m408.632812 213.402344c0 5.507812 4.492188 10 10 10 5.507813 0 10-4.492188 10-10 0-5.507813-4.492187-10-10-10-5.507812 0-10 4.492187-10 10zm0 0"/></g></svg>